<?xml version="1.0" encoding="UTF-8" standalone="no"?>
<!DOCTYPE svg PUBLIC "-//W3C//DTD SVG 20010904//EN"
              "http://www.w3.org/TR/2001/REC-SVG-20010904/DTD/svg10.dtd">

<svg xmlns="http://www.w3.org/2000/svg"
     width="8.88889in" height="5.55556in"
     viewBox="0 0 640 400">
  <path id="PubMed"
        fill="none" stroke="black" stroke-width="1"
        d="M 11.48,27.22
           C 23.16,27.22 29.00,22.68 29.00,13.60
             29.00,9.53 27.40,6.54 24.20,4.63
             21.02,2.70 15.97,1.74 9.06,1.74
             8.19,1.74 5.17,1.84 0.00,2.04
             0.00,2.04 0.00,41.78 0.00,41.78
             0.00,41.78 8.00,41.78 8.00,41.78
             8.00,41.78 8.00,27.04 8.00,27.04
             9.46,27.16 10.62,27.22 11.48,27.22 Z
           M 10.30,8.11
           C 17.43,8.11 21.00,10.12 21.00,14.15
             21.00,16.51 20.20,18.22 18.61,19.27
             17.02,20.32 14.49,20.85 11.03,20.85
             10.29,20.85 9.28,20.78 8.00,20.65
             8.00,20.65 8.00,8.24 8.00,8.24
             8.74,8.15 9.51,8.11 10.30,8.11 Z
           M 61.00,41.78
           C 61.00,41.78 61.00,12.66 61.00,12.66
             61.00,12.66 54.00,12.66 54.00,12.66
             54.00,12.66 54.00,32.41 54.00,32.41
             53.49,33.44 52.46,34.35 50.91,35.14
             49.36,35.93 47.69,36.32 45.89,36.32
             41.96,36.32 40.00,34.48 40.00,30.79
             40.00,30.79 40.00,12.66 40.00,12.66
             40.00,12.66 33.00,12.66 33.00,12.66
             33.00,12.66 33.00,31.22 33.00,31.22
             33.00,38.26 36.79,41.78 44.36,41.78
             45.93,41.78 47.66,41.58 49.55,41.17
             51.44,40.76 52.93,40.15 54.00,39.33
             54.00,39.33 54.00,41.78 54.00,41.78
             54.00,41.78 61.00,41.78 61.00,41.78 Z
           M 78.25,41.78
           C 83.09,41.78 86.93,40.42 89.75,37.69
             92.58,34.95 94.00,31.22 94.00,26.52
             94.00,22.47 92.57,19.14 89.72,16.56
             86.88,13.96 83.13,12.66 78.47,12.66
             76.14,12.66 73.98,13.21 72.00,14.32
             72.00,14.32 72.00,-0.08 72.00,-0.08
             72.00,-0.08 65.00,1.56 65.00,1.56
             65.00,1.56 65.00,41.78 65.00,41.78
             65.00,41.78 69.13,41.78 69.13,41.78
             69.13,41.78 70.77,39.65 70.77,39.65
             72.85,41.07 75.34,41.78 78.25,41.78 Z
           M 76.92,18.12
           C 82.97,18.12 86.00,21.00 86.00,26.75
             86.00,30.10 85.27,32.53 83.80,34.05
             82.34,35.56 79.85,36.32 76.34,36.32
             74.51,36.32 73.06,35.75 72.00,34.60
             72.00,34.60 72.00,19.78 72.00,19.78
             73.13,18.67 74.77,18.12 76.92,18.12 Z
           M 131.00,1.74
           C 131.00,1.74 127.00,1.74 127.00,1.74
             127.00,1.74 117.50,29.04 117.50,29.04
             117.50,29.04 108.00,1.74 108.00,1.74
             108.00,1.74 104.00,1.74 104.00,1.74
             104.00,1.74 95.00,41.78 95.00,41.78
             95.00,41.78 103.00,41.78 103.00,41.78
             103.00,41.78 107.50,19.94 107.50,19.94
             107.50,19.94 116.00,42.69 116.00,42.69
             116.00,42.69 119.00,42.69 119.00,42.69
             119.00,42.69 128.00,19.94 128.00,19.94
             128.00,19.94 132.00,41.78 132.00,41.78
             132.00,41.78 140.00,41.78 140.00,41.78
             140.00,41.78 131.00,1.74 131.00,1.74 Z
           M 169.00,25.44
           C 169.00,21.73 167.61,18.67 164.83,16.27
             162.05,13.86 158.35,12.66 153.75,12.66
             149.43,12.66 145.72,14.03 142.63,16.78
             139.54,19.52 138.00,23.10 138.00,27.52
             138.00,32.01 139.39,35.51 142.16,38.03
             144.94,40.53 148.71,41.78 153.48,41.78
             158.59,41.78 162.43,40.87 165.00,39.05
             165.00,39.05 162.22,33.59 162.22,33.59
             160.52,35.41 158.04,36.32 154.77,36.32
             152.15,36.32 150.07,35.68 148.52,34.41
             146.97,33.14 146.14,31.34 146.00,29.04
             146.00,29.04 168.39,29.04 168.39,29.04
             168.80,27.43 169.00,26.23 169.00,25.44 Z
           M 153.58,18.12
           C 158.04,18.12 160.51,19.94 161.00,23.58
             161.00,23.58 146.00,23.58 146.00,23.58
             146.99,19.94 149.52,18.12 153.58,18.12 Z
           M 201.00,41.78
           C 201.00,41.78 201.00,-0.08 201.00,-0.08
             201.00,-0.08 194.00,1.56 194.00,1.56
             194.00,1.56 194.00,14.02 194.00,14.02
             191.93,13.12 189.63,12.66 187.09,12.66
             182.49,12.66 178.66,14.05 175.59,16.84
             172.53,19.63 171.00,23.24 171.00,27.67
             171.00,32.11 172.33,35.57 175.00,38.05
             177.67,40.54 181.32,41.78 185.97,41.78
             187.60,41.78 189.19,41.64 190.72,41.37
             192.26,41.08 193.35,40.63 194.00,40.02
             194.00,40.02 194.00,41.78 194.00,41.78
             194.00,41.78 201.00,41.78 201.00,41.78 Z
           M 194.00,34.60
           C 193.67,34.99 192.95,35.37 191.84,35.75
             190.75,36.13 189.83,36.32 189.08,36.32
             182.36,36.32 179.00,33.38 179.00,27.49
             179.00,24.47 179.84,22.15 181.53,20.54
             183.23,18.93 185.64,18.12 188.77,18.12
             190.59,18.12 192.33,18.68 194.00,19.81
             194.00,19.81 194.00,34.60 194.00,34.60 Z" />
</svg>
